<?xml version="1.0" encoding="UTF-8"?>
<svg xmlns="http://www.w3.org/2000/svg" xmlns:xlink="http://www.w3.org/1999/xlink" width="8px" height="6px" viewBox="0 0 7 6" version="1.1">
<g id="surface1">
<path style=" stroke:none;fill-rule:nonzero;fill:rgb(41.568628%,41.568628%,41.568628%);fill-opacity:1;" d="M 0.714844 0.0742188 C 0.621094 0.175781 0.621094 0.339844 0.714844 0.441406 L 5.605469 5.925781 C 5.695312 6.027344 5.839844 6.027344 5.929688 5.925781 C 6.019531 5.824219 6.019531 5.660156 5.929688 5.558594 L 1.035156 0.0742188 C 0.949219 -0.0273438 0.804688 -0.0273438 0.714844 0.0742188 Z M 0.714844 0.0742188 "/>
<path style=" stroke:none;fill-rule:nonzero;fill:rgb(41.568628%,41.568628%,41.568628%);fill-opacity:1;" d="M 0 2.96875 C 0 2.75 0.390625 2.109375 1.019531 1.53125 L 1.335938 1.90625 C 1.320312 1.925781 1.300781 1.941406 1.28125 1.960938 C 1 2.21875 0.78125 2.488281 0.632812 2.710938 C 0.558594 2.820312 0.507812 2.910156 0.476562 2.972656 C 0.472656 2.984375 0.46875 2.996094 0.464844 3.003906 C 0.472656 3.03125 0.480469 3.0625 0.496094 3.105469 C 0.527344 3.191406 0.578125 3.296875 0.652344 3.414062 C 0.804688 3.65625 1.027344 3.929688 1.316406 4.1875 C 1.890625 4.707031 2.652344 5.113281 3.449219 5.113281 C 3.640625 5.113281 3.828125 5.089844 4.011719 5.042969 L 4.371094 5.46875 C 4.082031 5.570312 3.769531 5.628906 3.449219 5.628906 C 1.585938 5.628906 0 3.742188 0 2.96875 Z M 0 2.96875 "/>
<path style=" stroke:none;fill-rule:nonzero;fill:rgb(41.568628%,41.568628%,41.568628%);fill-opacity:1;" d="M 2.144531 3.140625 C 2.144531 3.050781 2.152344 2.960938 2.167969 2.878906 L 3.621094 4.585938 C 3.566406 4.597656 3.507812 4.597656 3.449219 4.597656 C 2.726562 4.597656 2.144531 3.945312 2.144531 3.140625 Z M 2.144531 3.140625 "/>
<path style=" stroke:none;fill-rule:nonzero;fill:rgb(41.568628%,41.568628%,41.568628%);fill-opacity:1;" d="M 3.132812 1.722656 L 4.695312 3.554688 C 4.730469 3.425781 4.75 3.285156 4.75 3.140625 C 4.75 2.335938 4.167969 1.679688 3.449219 1.679688 C 3.339844 1.679688 3.234375 1.695312 3.132812 1.722656 Z M 3.132812 1.722656 "/>
<path style=" stroke:none;fill-rule:nonzero;fill:rgb(41.568628%,41.568628%,41.568628%);fill-opacity:1;" d="M 5.488281 4.167969 C 5.4375 4.214844 5.390625 4.261719 5.339844 4.308594 L 5.65625 4.683594 C 6.328125 4.074219 6.742188 3.335938 6.742188 2.96875 C 6.742188 2.367188 5.230469 0.476562 3.371094 0.476562 C 2.984375 0.476562 2.613281 0.566406 2.269531 0.710938 L 2.621094 1.121094 C 2.863281 1.039062 3.113281 0.992188 3.371094 0.992188 C 4.164062 0.992188 4.910156 1.398438 5.464844 1.902344 C 5.742188 2.148438 5.960938 2.410156 6.105469 2.628906 C 6.175781 2.738281 6.226562 2.832031 6.253906 2.902344 C 6.269531 2.941406 6.277344 2.964844 6.277344 2.976562 C 6.277344 2.992188 6.269531 3.027344 6.25 3.089844 C 6.21875 3.171875 6.171875 3.273438 6.101562 3.394531 C 5.964844 3.632812 5.753906 3.90625 5.488281 4.167969 Z M 5.488281 4.167969 "/>
</g>
</svg>
